# xmcd CD database file
#
# Track frame offsets:
#	150
#	10152
#	20329
#	30432
#	42188
#	51997
#	60279
#	72370
#	84380
#	94660
#	105816
#	116558
#	128310
#	136760
#
# Disc length: 1992 seconds
#
# Revision: 0
# Processed by: cddbd v1.5.2PL0 Copyright (c) Steve Scherf et al.
# Submitted via: CDex 1.70beta2
#
DISCID=9b07c60e
DTITLE=Johnny Cash - Orby Records Spotlights
DYEAR=2004
DGENRE=Country
TTITLE0=Ballad Of A Teenage Queen
TTITLE1=The Ways Of A Woman In Love
TTITLE2=I Could Never Be Ashamed Of You
TTITLE3=Thanks A Lot
TTITLE4=Born To Lose
TTITLE5=Guess Things Happen That Way
TTITLE6=Goodnight Irene
TTITLE7=Home Of The Blues
TTITLE8=There You Go
TTITLE9=Don't Make Me Go
TTITLE10=Train Of Love
TTITLE11=So Doggone Lonesome
TTITLE12=Country Boy
TTITLE13=Folsom Prison Blues
EXTD=YEAR: 2004
EXTT0=
EXTT1=
EXTT2=
EXTT3=
EXTT4=
EXTT5=
EXTT6=
EXTT7=
EXTT8=
EXTT9=
EXTT10=
EXTT11=
EXTT12=
EXTT13=
PLAYORDER=
